<svg width="23" height="23" viewBox="0 0 23 23" fill="none" xmlns="http://www.w3.org/2000/svg">
<path d="M21.1722 1.02269C21.3383 0.962455 21.504 1.08741 21.5079 1.2504L21.4993 1.32197L16.1702 21.4311C16.1497 21.5079 16.1149 21.5461 16.0837 21.569C16.047 21.5959 15.9943 21.6153 15.933 21.6165C15.872 21.6176 15.8188 21.6009 15.7812 21.5756C15.757 21.5593 15.7312 21.5338 15.7097 21.4903L15.6895 21.44L12.8839 12.3224C12.7254 11.8071 12.34 11.3974 11.8452 11.2052L11.6258 11.1368L1.46599 8.65527C1.39044 8.63682 1.35083 8.6038 1.32685 8.57297C1.29918 8.5373 1.27876 8.48639 1.27542 8.42664C1.27218 8.36673 1.28645 8.31297 1.31014 8.27442C1.32552 8.24948 1.35008 8.22274 1.39183 8.19959L1.43992 8.17741L21.1722 1.02269Z" stroke="black" stroke-width="1.5"/>
</svg>
