<svg width="350" height="70" viewBox="0 0 350 70" fill="none" xmlns="http://www.w3.org/2000/svg">
<path d="M0 12C0 5.37258 5.37258 0 12 0H338C344.627 0 350 5.37258 350 12V58C350 64.6274 344.627 70 338 70H12C5.37259 70 0 64.6274 0 58V12Z" fill="url(#paint0_linear_183_44)"/>
<path d="M70.4655 43.704H68.5775L73.9855 28.76H79.9375L72.9935 47H66.9135L61.0255 31.576H63.0735L57.0895 47H51.0095L44.0975 28.76H50.0815L55.5215 43.704H53.5695L59.2015 28.76H64.9295L70.4655 43.704ZM82.0138 22.36H87.9338V47H82.0138V22.36ZM94.7818 28.248C96.5098 28.248 97.9818 28.6 99.1978 29.304C100.435 30.008 101.374 31 102.014 32.28C102.675 33.5387 103.006 35.0533 103.006 36.824V47H97.0538V37.72C97.0538 36.2053 96.6804 35.064 95.9338 34.296C95.2084 33.5067 94.1418 33.112 92.7338 33.112C91.7524 33.112 90.8991 33.3253 90.1738 33.752C89.4698 34.1573 88.9151 34.744 88.5098 35.512C88.1258 36.2587 87.9338 37.1547 87.9338 38.2L86.0458 37.208C86.3018 35.2667 86.8351 33.6347 87.6458 32.312C88.4564 30.9893 89.4698 29.9867 90.6858 29.304C91.9231 28.6 93.2884 28.248 94.7818 28.248ZM106.576 28.504L109.52 29.112L112.496 28.504V47H106.576V28.504ZM109.552 26.84C108.507 26.84 107.654 26.5733 106.992 26.04C106.331 25.4853 106 24.76 106 23.864C106 22.9467 106.331 22.2213 106.992 21.688C107.654 21.1547 108.507 20.888 109.552 20.888C110.619 20.888 111.472 21.1547 112.112 21.688C112.752 22.2213 113.072 22.9467 113.072 23.864C113.072 24.76 112.752 25.4853 112.112 26.04C111.472 26.5733 110.619 26.84 109.552 26.84ZM114.566 33.176V30.584L118.342 29.208L120.87 23.896H124.294V28.76H132.166V33.176H124.294V39.192C124.294 40.5573 124.572 41.5173 125.126 42.072C125.681 42.6053 126.673 42.872 128.102 42.872C128.998 42.872 129.798 42.7973 130.502 42.648C131.206 42.4773 131.868 42.2533 132.486 41.976V46.488C131.846 46.744 131.004 46.9787 129.958 47.192C128.934 47.4053 127.868 47.512 126.758 47.512C124.817 47.512 123.217 47.2027 121.958 46.584C120.721 45.9653 119.804 45.1013 119.206 43.992C118.63 42.8613 118.342 41.5387 118.342 40.024V33.176H114.566ZM145.103 47.512C142.927 47.512 140.975 47.1067 139.247 46.296C137.54 45.4853 136.196 44.3547 135.215 42.904C134.233 41.4533 133.743 39.7573 133.743 37.816C133.743 35.9173 134.212 34.2533 135.151 32.824C136.089 31.3947 137.38 30.2747 139.023 29.464C140.687 28.6533 142.564 28.248 144.655 28.248C146.788 28.248 148.623 28.7173 150.159 29.656C151.695 30.5947 152.879 31.9173 153.711 33.624C154.543 35.3307 154.959 37.336 154.959 39.64H138.511V35.896H151.695L149.551 37.24C149.487 36.2373 149.241 35.3947 148.815 34.712C148.409 34.008 147.865 33.4747 147.183 33.112C146.5 32.728 145.689 32.536 144.751 32.536C143.727 32.536 142.841 32.7387 142.095 33.144C141.348 33.5493 140.761 34.1147 140.335 34.84C139.929 35.5653 139.727 36.408 139.727 37.368C139.727 38.584 139.993 39.6187 140.527 40.472C141.081 41.3253 141.871 41.976 142.895 42.424C143.94 42.872 145.209 43.096 146.703 43.096C148.068 43.096 149.433 42.9147 150.799 42.552C152.164 42.168 153.391 41.6347 154.479 40.952V44.824C153.241 45.6773 151.823 46.3387 150.223 46.808C148.644 47.2773 146.937 47.512 145.103 47.512ZM157.92 22.36H163.84V34.296L163.04 35.864V40.152L163.84 41.688V47H157.92V22.36ZM161.856 37.88C162.176 35.9173 162.784 34.2213 163.68 32.792C164.576 31.3627 165.707 30.2533 167.072 29.464C168.437 28.6533 169.973 28.248 171.68 28.248C173.472 28.248 175.04 28.6533 176.384 29.464C177.749 30.2747 178.816 31.4053 179.584 32.856C180.352 34.2853 180.736 35.96 180.736 37.88C180.736 39.8 180.352 41.4853 179.584 42.936C178.816 44.3653 177.749 45.4853 176.384 46.296C175.04 47.1067 173.472 47.512 171.68 47.512C169.973 47.512 168.437 47.1173 167.072 46.328C165.707 45.5173 164.576 44.3973 163.68 42.968C162.784 41.5173 162.176 39.8213 161.856 37.88ZM174.72 37.88C174.72 36.8987 174.517 36.0347 174.112 35.288C173.707 34.52 173.141 33.9227 172.416 33.496C171.712 33.048 170.891 32.824 169.952 32.824C169.013 32.824 168.117 33.048 167.264 33.496C166.432 33.9227 165.696 34.52 165.056 35.288C164.437 36.0347 163.957 36.8987 163.616 37.88C163.957 38.8613 164.437 39.736 165.056 40.504C165.696 41.2507 166.432 41.848 167.264 42.296C168.117 42.7227 169.013 42.936 169.952 42.936C170.891 42.936 171.712 42.7227 172.416 42.296C173.141 41.848 173.707 41.2507 174.112 40.504C174.517 39.736 174.72 38.8613 174.72 37.88ZM194.325 47.512C192.021 47.512 190.005 47.1067 188.277 46.296C186.549 45.4853 185.205 44.3547 184.245 42.904C183.285 41.4533 182.805 39.7787 182.805 37.88C182.805 35.96 183.285 34.2853 184.245 32.856C185.205 31.4053 186.549 30.2747 188.277 29.464C190.027 28.6533 192.043 28.248 194.325 28.248C196.629 28.248 198.645 28.6533 200.373 29.464C202.101 30.2747 203.445 31.4053 204.405 32.856C205.387 34.2853 205.877 35.96 205.877 37.88C205.877 39.8 205.387 41.4853 204.405 42.936C203.445 44.3653 202.101 45.4853 200.373 46.296C198.645 47.1067 196.629 47.512 194.325 47.512ZM194.325 43.032C195.499 43.032 196.491 42.8293 197.301 42.424C198.133 41.9973 198.763 41.4 199.189 40.632C199.637 39.864 199.861 38.9467 199.861 37.88C199.861 36.8133 199.637 35.896 199.189 35.128C198.763 34.3387 198.133 33.7413 197.301 33.336C196.491 32.9093 195.499 32.696 194.325 32.696C193.195 32.696 192.213 32.9093 191.381 33.336C190.549 33.7413 189.909 34.3387 189.461 35.128C189.013 35.896 188.789 36.8133 188.789 37.88C188.789 38.9467 189.013 39.864 189.461 40.632C189.909 41.4 190.549 41.9973 191.381 42.424C192.213 42.8293 193.195 43.032 194.325 43.032ZM225.402 47L224.602 40.376L225.466 37.88L224.602 35.416L225.402 28.76H231.578L230.458 37.88L231.578 47H225.402ZM226.874 37.88C226.554 39.8213 225.946 41.5173 225.05 42.968C224.154 44.3973 223.024 45.5173 221.658 46.328C220.293 47.1173 218.757 47.512 217.05 47.512C215.258 47.512 213.68 47.1067 212.314 46.296C210.97 45.4853 209.914 44.3653 209.146 42.936C208.378 41.4853 207.994 39.8 207.994 37.88C207.994 35.96 208.378 34.2853 209.146 32.856C209.914 31.4053 210.97 30.2747 212.314 29.464C213.68 28.6533 215.258 28.248 217.05 28.248C218.757 28.248 220.293 28.6533 221.658 29.464C223.024 30.2533 224.154 31.3627 225.05 32.792C225.968 34.2213 226.576 35.9173 226.874 37.88ZM214.01 37.88C214.01 38.8613 214.213 39.736 214.618 40.504C215.024 41.2507 215.578 41.848 216.282 42.296C217.008 42.7227 217.84 42.936 218.778 42.936C219.717 42.936 220.602 42.7227 221.434 42.296C222.288 41.848 223.034 41.2507 223.674 40.504C224.314 39.736 224.794 38.8613 225.114 37.88C224.794 36.8987 224.314 36.0347 223.674 35.288C223.034 34.52 222.288 33.9227 221.434 33.496C220.602 33.048 219.717 32.824 218.778 32.824C217.84 32.824 217.008 33.048 216.282 33.496C215.578 33.9227 215.024 34.52 214.618 35.288C214.213 36.0347 214.01 36.8987 214.01 37.88ZM234.087 28.76H240.103L241.191 35.32V47H235.239V34.808L234.087 28.76ZM249.895 28.504V33.624C249.319 33.496 248.743 33.4 248.167 33.336C247.613 33.272 247.101 33.24 246.631 33.24C245.607 33.24 244.679 33.4533 243.847 33.88C243.037 34.2853 242.386 34.936 241.895 35.832C241.426 36.728 241.191 37.8907 241.191 39.32L240.007 37.848C240.157 36.5467 240.402 35.32 240.743 34.168C241.085 33.016 241.554 32.0027 242.151 31.128C242.749 30.232 243.485 29.528 244.359 29.016C245.255 28.504 246.333 28.248 247.591 28.248C247.954 28.248 248.338 28.2693 248.743 28.312C249.149 28.3547 249.533 28.4187 249.895 28.504ZM268.467 47L267.667 40.12L268.755 37.944L267.699 35.192L269.171 22.36H275.347L273.523 37.432L274.611 47H268.467ZM269.843 37.88C269.523 39.8213 268.915 41.5173 268.019 42.968C267.123 44.3973 265.992 45.5173 264.627 46.328C263.262 47.1173 261.726 47.512 260.019 47.512C258.227 47.512 256.648 47.1067 255.283 46.296C253.939 45.4853 252.883 44.3653 252.115 42.936C251.347 41.4853 250.963 39.8 250.963 37.88C250.963 35.96 251.347 34.2853 252.115 32.856C252.883 31.4053 253.939 30.2747 255.283 29.464C256.648 28.6533 258.227 28.248 260.019 28.248C261.726 28.248 263.262 28.6533 264.627 29.464C265.992 30.2533 267.123 31.3627 268.019 32.792C268.936 34.2213 269.544 35.9173 269.843 37.88ZM256.979 37.88C256.979 38.8613 257.182 39.736 257.587 40.504C257.992 41.2507 258.547 41.848 259.251 42.296C259.976 42.7227 260.808 42.936 261.747 42.936C262.686 42.936 263.571 42.7227 264.403 42.296C265.256 41.848 266.003 41.2507 266.643 40.504C267.283 39.736 267.763 38.8613 268.083 37.88C267.763 36.8987 267.283 36.0347 266.643 35.288C266.003 34.52 265.256 33.9227 264.403 33.496C263.571 33.048 262.686 32.824 261.747 32.824C260.808 32.824 259.976 33.048 259.251 33.496C258.547 33.9227 257.992 34.52 257.587 35.288C257.182 36.0347 256.979 36.8987 256.979 37.88Z" fill="white"/>
<line x1="296.532" y1="46.9574" x2="312.967" y2="29.9574" stroke="white" stroke-width="3"/>
<path d="M317.945 24.1924L310.342 47.7177L294.42 31.7961L317.945 24.1924Z" fill="white"/>
<defs>
<linearGradient id="paint0_linear_183_44" x1="-4.17233e-07" y1="70" x2="350" y2="0" gradientUnits="userSpaceOnUse">
<stop stop-color="#3888FF"/>
<stop offset="1" stop-color="#3888FF"/>
</linearGradient>
</defs>
</svg>
